<?xml version="1.0" encoding="UTF-8"?>
<svg version="1.1" xmlns="http://www.w3.org/2000/svg" width="1171" height="1088">
<path d="M0 0 C5.21911962 3.01549134 7.64389392 6.27699143 9.2299242 12.16571331 C9.87311974 16.42704767 9.81272917 20.6385891 9.80558777 24.94233704 C9.80785333 25.94143496 9.81011888 26.94053289 9.81245309 27.96990651 C9.8187889 31.32150212 9.81796399 34.67305726 9.81713867 38.0246582 C9.82013043 40.42617851 9.82353299 42.82769834 9.82731628 45.22921753 C9.83524018 51.07797278 9.83837088 56.92671852 9.83892866 62.77547804 C9.83940411 67.53072672 9.84146029 72.28597208 9.84462929 77.04121971 C9.85343453 90.52884981 9.8580489 104.01647196 9.85729881 117.50410495 C9.85725886 118.23099006 9.8572189 118.95787518 9.85717773 119.70678711 C9.85713685 120.43456174 9.85709597 121.16233637 9.85705385 121.91216477 C9.85664747 133.70463362 9.86621534 145.49707052 9.8803161 157.28953014 C9.89468674 169.40346227 9.9015859 181.51737883 9.90072232 193.6313197 C9.90039058 200.43013844 9.90312771 207.2289237 9.91390038 214.02773476 C9.92396804 220.4225065 9.92366297 226.81722583 9.91638374 233.2120018 C9.91533745 235.55814276 9.91770346 237.90428811 9.9237442 240.25042152 C9.9314606 243.4551016 9.92682145 246.65953723 9.91911316 249.86421204 C9.92425672 250.79078104 9.92940029 251.71735004 9.93469971 252.67199689 C9.90000355 259.20772654 9.457225 265.2244375 5.921875 270.90625 C0.93365005 275.75591315 -3.55142333 276.55150563 -10.28491211 276.46655273 C-15.70630042 275.80241636 -20.08510165 273.3048233 -24.828125 270.71875 C-25.86259766 270.17726318 -26.89707031 269.63577637 -27.96289062 269.07788086 C-30.0753698 267.96921881 -32.18286428 266.85100459 -34.28515625 265.72314453 C-37.12030586 264.20502928 -39.96921171 262.71885146 -42.828125 261.24609375 C-65.65652247 249.43695506 -65.65652247 249.43695506 -69.328125 242.09375 C-69.43260503 239.38660949 -69.47592048 236.70481646 -69.47529602 233.99713135 C-69.47897271 233.150277 -69.4826494 232.30342266 -69.4864375 231.43090606 C-69.49750191 228.57665269 -69.50132284 225.72243569 -69.50512695 222.86816406 C-69.51138952 220.82836795 -69.51803613 218.788573 -69.52503967 216.7487793 C-69.54246854 211.19495695 -69.55300655 205.64114323 -69.5612452 200.0873003 C-69.56639129 196.61945508 -69.57246719 193.15161255 -69.57875633 189.68376923 C-69.59781355 178.83952626 -69.61204364 167.99529014 -69.6203683 157.15103364 C-69.63014408 144.62236163 -69.65647038 132.09386615 -69.69686919 119.56525636 C-69.72700329 109.88876768 -69.7418346 100.21232967 -69.74514931 90.53579497 C-69.74750287 84.75303434 -69.75650304 78.97046218 -69.78161049 73.18775177 C-69.80484882 67.74751224 -69.80914144 62.30758582 -69.79884911 56.86730957 C-69.79835261 54.87024648 -69.80470655 52.87316821 -69.81840515 50.87615204 C-69.83606042 48.14982537 -69.82904936 45.42463011 -69.81587219 42.69830322 C-69.82684144 41.90782727 -69.83781068 41.11735131 -69.84911233 40.30292153 C-69.78860243 35.1180923 -68.70541709 32.23326775 -65.328125 28.09375 C-62.15203575 25.21224711 -58.88781438 23.18159235 -55.07421875 21.24609375 C-54.06375488 20.72821289 -53.05329102 20.21033203 -52.01220703 19.67675781 C-50.94083496 19.13374023 -49.86946289 18.59072266 -48.765625 18.03125 C-39.56657012 13.31675118 -30.45367755 8.48514359 -21.43530273 3.43334961 C-20.28783569 2.79345093 -20.28783569 2.79345093 -19.1171875 2.140625 C-18.45412598 1.76776367 -17.79106445 1.39490234 -17.10791016 1.01074219 C-11.83473458 -1.70613675 -5.54841379 -2.15978524 0 0 Z " fill="#ffffff" transform="translate(543.328125,291.90625)"/>
<path d="M0 0 C3.72352801 1.45353668 6.7652439 3.67378462 10 6 C11.19825496 6.83731843 12.39755158 7.67314736 13.59765625 8.5078125 C16.44462347 10.49783073 19.27808145 12.50570833 22.10546875 14.5234375 C27.5387107 18.39458046 33.01913976 22.19672342 38.5 26 C40.45589788 27.36043456 42.41162888 28.72110907 44.3671875 30.08203125 C47.11062346 31.99121965 49.85470907 33.89938671 52.60253906 35.80224609 C54.9466205 37.426035 57.28629105 39.05598686 59.625 40.6875 C60.30498047 41.15607422 60.98496094 41.62464844 61.68554688 42.10742188 C71.94344226 49.29108561 71.94344226 49.29108561 74 55 C74.37109375 57.296875 74.37109375 57.296875 74.4375 59.75 C74.49744141 60.94882812 74.49744141 60.94882812 74.55859375 62.171875 C73.45352806 67.76675302 70.29099065 72.32362275 65.71484375 75.6953125 C64.46587641 76.52077078 63.20606401 77.3299867 61.9375 78.125 C60.49907252 79.07020464 59.06161683 80.01688938 57.625 80.96484375 C56.86960937 81.45710449 56.11421875 81.94936523 55.3359375 82.45654297 C51.31103726 85.11597224 47.37973692 87.9076674 43.4375 90.6875 C41.75563951 91.86780214 40.07333696 93.04747459 38.390625 94.2265625 C37.52373047 94.8340332 36.65683594 95.44150391 35.76367188 96.06738281 C29.7779148 100.25318255 23.77730056 104.41770513 17.77709961 108.58276367 C16.86452393 109.21674072 15.95194824 109.85071777 15.01171875 110.50390625 C14.14981934 111.10219238 13.28791992 111.70047852 12.39990234 112.31689453 C10.25444448 113.82155237 8.13499892 115.35602048 6.01953125 116.90234375 C0.59332755 120.6719057 -4.58810685 120.50917975 -11 120 C-15.60776793 118.19696037 -18.08972958 114.88036056 -21 111 C-22.32656797 107.02029609 -22.15577946 103.19959011 -22.16113281 99.04980469 C-22.16609772 98.13402145 -22.17106262 97.21823822 -22.17617798 96.27470398 C-22.19080073 93.24042004 -22.19760233 90.20618841 -22.203125 87.171875 C-22.20887701 85.06300861 -22.21463474 82.95414224 -22.22039795 80.84527588 C-22.2309087 76.42012285 -22.23675067 71.99498798 -22.24023438 67.56982422 C-22.24571474 61.90606696 -22.26973281 56.24255064 -22.29820633 50.57886887 C-22.31685368 46.22077743 -22.32203947 41.86274374 -22.32357025 37.50461578 C-22.32659331 35.41707291 -22.33461009 33.32953096 -22.34775543 31.24202728 C-22.36485715 28.31709112 -22.36292534 25.39273966 -22.35644531 22.46777344 C-22.3656601 21.60933334 -22.37487488 20.75089325 -22.3843689 19.86643982 C-22.34329442 13.93199457 -21.53762125 8.87984498 -17.46484375 4.2578125 C-11.48361581 -0.17839236 -7.43545276 -0.96602339 0 0 Z " fill="#ffffff" transform="translate(623,336)"/>
<path d="M0 0 C62.21641015 0 62.21641015 0 79.67578125 16.47265625 C90.92494588 28.70494115 93.93227761 44.63839206 93.31640625 60.73828125 C92.35829265 76.14021498 86.46338842 89.55075021 75 100 C62.16700856 110.17654268 47.5869175 112.17818575 31.6875 112.1875 C30.10098633 112.20586914 30.10098633 112.20586914 28.48242188 112.22460938 C18.73925055 112.24199755 9.8709492 111.09677213 0 110 C0 73.7 0 37.4 0 0 Z M11 10 C11 40.03 11 70.06 11 101 C27.34456174 105.08614044 48.57700224 103.36867473 63.5 95.3125 C73.21293886 88.82085568 79.61117463 79.39285945 82 68 C84.20308747 51.571262 82.21678082 37.06173074 72.18359375 23.5546875 C64.78881513 15.43432518 55.48536233 12.33008052 45 10 C33.78 10 22.56 10 11 10 Z " fill="#ffffff" transform="translate(604,685)"/>
<path d="M0 0 C61.75333072 0 61.75333072 0 77.3125 14.75 C88.35957004 26.51486699 93.14750398 40.8851899 93 57 C92.19377697 71.42563351 88.91171428 84.03017244 79 95 C78.50113281 95.61359375 78.00226563 96.2271875 77.48828125 96.859375 C69.18297521 106.31529019 55.2573391 111.1375433 43 112 C38.95714967 112.13347003 34.91975433 112.14236731 30.875 112.125 C29.77003174 112.12234131 28.66506348 112.11968262 27.52661133 112.11694336 C8.01538909 112.00384727 8.01538909 112.00384727 0 110 C0 73.7 0 37.4 0 0 Z M10 10 C10 40.03 10 70.06 10 101 C26.82685261 105.20671315 48.78803365 103.42000176 63.734375 94.4609375 C64.48203125 93.97882813 65.2296875 93.49671875 66 93 C66.928125 92.401875 67.85625 91.80375 68.8125 91.1875 C78.34659242 81.65340758 82.09368672 69.58347238 82.25 56.375 C82.24202217 42.51112133 78.33477853 31.05795054 68.87890625 20.78515625 C53.13241063 5.82434856 29.79150207 10 10 10 Z " fill="#ffffff" transform="translate(488,685)"/>
<path d="M0 0 C23.43 0 46.86 0 71 0 C71 3.3 71 6.6 71 10 C51.2 10 31.4 10 11 10 C11 22.21 11 34.42 11 47 C25.52 47 40.04 47 55 47 C55 49.97 55 52.94 55 56 C40.48 56 25.96 56 11 56 C11 70.19 11 84.38 11 99 C31.79 99 52.58 99 74 99 C74 102.3 74 105.6 74 109 C49.58 109 25.16 109 0 109 C0 73.03 0 37.06 0 0 Z " fill="#ffffff" transform="translate(806,686)"/>
<path d="M0 0 C3.63 0 7.26 0 11 0 C11.00364563 0.91517899 11.00729126 1.83035797 11.01104736 2.77326965 C11.0490625 11.43786548 11.10606762 20.10209006 11.18390274 28.76642323 C11.22325345 33.21986584 11.2555023 37.6731144 11.27099609 42.12670898 C11.28624504 46.43229693 11.32083449 50.73735092 11.36830902 55.04269981 C11.38303849 56.6775108 11.39103612 58.31239805 11.39188385 59.94727516 C11.39392491 74.87530069 11.39392491 74.87530069 17.63433838 88.16609192 C19 90 19 90 19 92 C19.53625 92.2475 20.0725 92.495 20.625 92.75 C23 94 23 94 25.8125 96 C33.10146017 100.57346521 41.04675563 100.98247987 49.390625 99.60546875 C56.50628323 97.67727465 62.23622321 93.03636327 66.3828125 86.98046875 C70.00598369 80.17695841 71.23924339 73.032635 71.31884766 65.390625 C71.32889328 64.67744614 71.3389389 63.96426727 71.34928894 63.22947693 C71.37985544 60.90299185 71.39708109 58.57662037 71.4140625 56.25 C71.43279559 54.6247461 71.45237057 52.9995017 71.4727478 51.37426758 C71.52384906 47.11978792 71.56359181 42.8652768 71.60089111 38.61065674 C71.64106955 34.25989135 71.69209842 29.90925433 71.7421875 25.55859375 C71.83868586 17.03915053 71.92317319 8.51964323 72 0 C75.63 0 79.26 0 83 0 C83.0466247 8.77194546 83.0820207 17.54384735 83.10362434 26.31589031 C83.11400021 30.39040739 83.12804411 34.46483883 83.15087891 38.53930664 C83.17283096 42.48155861 83.18461503 46.42372893 83.18975449 50.36603737 C83.19341057 51.85970149 83.20054809 53.35336185 83.21146011 54.84699059 C83.33390542 72.32436764 82.06754461 87.72412514 69.33984375 100.69140625 C60.84490416 108.41231945 50.697922 111.52480611 39.27734375 111.18359375 C27.54212134 110.23752951 18.16999141 106.24517227 10.04296875 97.5859375 C0.1041553 85.00564208 -0.29962911 71.35699501 -0.1953125 56.0546875 C-0.19157517 54.43230363 -0.18873161 52.80991747 -0.18673706 51.18753052 C-0.17915724 46.94939777 -0.15955836 42.71140548 -0.1373291 38.47332764 C-0.11674787 34.13588358 -0.10770927 29.79841648 -0.09765625 25.4609375 C-0.07630625 16.97389439 -0.04223991 8.48696475 0 0 Z " fill="#ffffff" transform="translate(377,686)"/>
<path d="M0 0 C47.48648649 0 47.48648649 0 56 7 C63.82323342 15.27419675 66.63011567 24.84673918 66.47045898 36.078125 C66.00989444 46.37512009 62.54272024 54.01967557 55 61 C45.29219375 68.80845285 33.51022304 69.16276682 21.5625 69.0625 C18.076875 69.041875 14.59125 69.02125 11 69 C11 82.2 11 95.4 11 109 C7.37 109 3.74 109 0 109 C0 73.03 0 37.06 0 0 Z M11 10 C11 26.17 11 42.34 11 59 C31.32521619 60.05315234 31.32521619 60.05315234 48.4375 52.75 C54.4035107 46.34745193 56.11417944 39.69032374 56 31 C55.22939844 24.11200761 52.22998018 18.80641568 47.0625 14.25 C42.12121615 10.61966901 38.49743575 9.74888187 32.38671875 9.8046875 C30.70002075 9.81218018 30.70002075 9.81218018 28.97924805 9.81982422 C27.56297119 9.83803223 26.14669434 9.85624023 24.6875 9.875 C17.9121875 9.936875 17.9121875 9.936875 11 10 Z " fill="#ffffff" transform="translate(291,686)"/>
<path d="M0 0 C3.3 0 6.6 0 10 0 C10 32.67 10 65.34 10 99 C28.15 99 46.3 99 65 99 C65 102.3 65 105.6 65 109 C43.55 109 22.1 109 0 109 C0 73.03 0 37.06 0 0 Z " fill="#ffffff" transform="translate(721,686)"/>
</svg>
