<?xml version="1.0" encoding="UTF-8"?>
<svg version="1.1" xmlns="http://www.w3.org/2000/svg" width="484" height="516">
<path d="M0 0 C3.27981751 2.06771104 4.84746007 3.77119011 7 7 C7.25447559 9.760252 7.25447559 9.760252 7.26069641 13.17355347 C7.26778122 14.46623138 7.27486603 15.7589093 7.28216553 17.09075928 C7.27987161 18.52648961 7.27736189 19.9622196 7.2746582 21.39794922 C7.27900464 22.90750379 7.28418756 24.41705615 7.29014587 25.92660522 C7.30355569 30.029963 7.30411226 34.13322879 7.30158257 38.23660421 C7.30051403 41.66107334 7.30539333 45.08552377 7.310188 48.5099889 C7.32129041 56.58919298 7.32171671 64.66835057 7.31567383 72.74755859 C7.30963474 81.08353395 7.32194166 89.4193405 7.3432439 97.75528705 C7.36085647 104.9103668 7.36686173 112.0653928 7.36360615 119.22049344 C7.36179232 123.49466675 7.36443921 127.76871968 7.37832069 132.04287338 C7.39088857 136.06317781 7.38896492 140.0832191 7.37590981 144.10351944 C7.37354205 145.57852517 7.37628587 147.05354936 7.38453293 148.52853394 C7.39498433 150.5431582 7.38510603 152.55785728 7.3742218 154.57247925 C7.37438954 155.69962278 7.37455729 156.82676632 7.37473011 157.98806572 C6.95293702 161.37827384 5.99300269 163.2533839 4 166 C1.05375284 168.29152557 -2.04944823 168.35080172 -5.71508789 168.31469727 C-10.05993781 167.71628808 -13.61494811 165.46294193 -17.375 163.3125 C-19.0503015 162.3884526 -20.72607834 161.46526643 -22.40234375 160.54296875 C-23.19624512 160.10001465 -23.99014648 159.65706055 -24.80810547 159.20068359 C-28.16492129 157.36187537 -31.61517288 155.73456641 -35.08984375 154.1328125 C-37.53688198 152.68160373 -39.15806097 151.17805833 -41 149 C-41.5117445 146.50992775 -41.5117445 146.50992775 -41.52812195 143.66201782 C-41.55154411 142.03863747 -41.55154411 142.03863747 -41.57543945 140.38246155 C-41.57205566 139.20002365 -41.56867188 138.01758575 -41.56518555 136.79931641 C-41.5770137 135.55015945 -41.58884186 134.3010025 -41.60102844 133.01399231 C-41.62829665 129.59007326 -41.63735286 126.1671233 -41.63609672 122.74316072 C-41.6369275 119.882873 -41.6491726 117.02267648 -41.66104633 114.16241682 C-41.68842049 107.41258166 -41.69374922 100.66296487 -41.6862793 93.91308594 C-41.6790397 86.95539068 -41.71244436 79.99870903 -41.76533669 73.04123366 C-41.80913929 67.063133 -41.82583147 61.08535953 -41.8213008 55.10710084 C-41.81898018 51.53854048 -41.82726449 47.97079893 -41.86237144 44.40239334 C-41.9003152 40.42101767 -41.88182527 36.44098165 -41.8581543 32.45947266 C-41.87703705 31.28108322 -41.8959198 30.10269379 -41.91537476 28.88859558 C-41.80476006 21.07617491 -41.80476006 21.07617491 -39.46544838 17.94790268 C-37.71107817 16.41192272 -36.01077411 15.17349034 -34 14 C-33.23816406 13.55011719 -32.47632813 13.10023438 -31.69140625 12.63671875 C-30.98886719 12.32347656 -30.28632813 12.01023438 -29.5625 11.6875 C-26.29565686 10.16664194 -23.17059185 8.5384117 -20.08203125 6.6875 C-19.38843506 6.27669189 -18.69483887 5.86588379 -17.98022461 5.44262695 C-16.60701791 4.62392631 -15.2414387 3.79225289 -13.88500977 2.94604492 C-9.00938943 0.07083518 -5.66077221 -0.57567175 0 0 Z " fill="#F5F5F5" transform="translate(216,174)"/>
<path d="M0 0 C1.78369095 1.20414874 3.47770622 2.47549276 5.16723633 3.80834961 C6.37673455 4.721717 7.58766466 5.63319146 8.80004883 6.54272461 C9.66291504 7.19724609 9.66291504 7.19724609 10.54321289 7.86499023 C12.63207619 9.39992165 14.81140754 10.74049345 17.04223633 12.05834961 C18.58911133 13.04834961 18.58911133 13.04834961 20.16723633 14.05834961 C20.16723633 14.71834961 20.16723633 15.37834961 20.16723633 16.05834961 C20.87750977 16.30713867 21.5877832 16.55592773 22.31958008 16.81225586 C25.48819623 18.19879709 27.9606951 19.92773398 30.72973633 21.99584961 C31.65915039 22.68549805 32.58856445 23.37514648 33.54614258 24.08569336 C34.41110352 24.73666992 35.27606445 25.38764648 36.16723633 26.05834961 C36.92262695 26.55592773 37.67801758 27.05350586 38.45629883 27.56616211 C41.05141777 29.82948502 40.88554388 31.83342922 41.15161133 35.11694336 C41.16877819 37.24992569 40.91804179 39.05620171 40.16723633 41.05834961 C39.50723633 41.05834961 38.84723633 41.05834961 38.16723633 41.05834961 C38.16723633 41.71834961 38.16723633 42.37834961 38.16723633 43.05834961 C37.50723633 43.05834961 36.84723633 43.05834961 36.16723633 43.05834961 C36.16723633 43.71834961 36.16723633 44.37834961 36.16723633 45.05834961 C34.36645508 46.28491211 34.36645508 46.28491211 31.85473633 47.68334961 C25.98369554 51.09234103 20.61937239 55.02419432 15.16723633 59.05834961 C12.73695727 60.83929165 10.29772837 62.60739951 7.85473633 64.37084961 C7.28013672 64.79140625 6.70553711 65.21196289 6.11352539 65.64526367 C-2.92342725 72.15710839 -2.92342725 72.15710839 -8.45776367 71.87084961 C-13.7586896 70.59470078 -13.7586896 70.59470078 -15.83276367 69.05834961 C-17.6480343 65.3623728 -18.08858557 62.35475511 -18.10742188 58.26171875 C-18.11695389 57.12025894 -18.1264859 55.97879913 -18.13630676 54.80274963 C-18.13539536 53.57869919 -18.13448395 52.35464874 -18.13354492 51.09350586 C-18.13783005 49.82744003 -18.14211517 48.56137421 -18.14653015 47.25694275 C-18.15226944 44.5813099 -18.15371376 41.90606333 -18.1484375 39.23046875 C-18.14264441 35.81305518 -18.15957755 32.39618387 -18.18278217 28.9788599 C-18.20111321 25.70457955 -18.19733319 22.43032825 -18.19604492 19.15600586 C-18.20525467 17.93397964 -18.21446442 16.71195343 -18.22395325 15.45289612 C-18.16570146 4.74846007 -18.16570146 4.74846007 -14.83276367 0.05834961 C-10.3672056 -2.87615998 -4.66263398 -2.39560134 0 0 Z " fill="#F3F3F3" transform="translate(268.832763671875,202.941650390625)"/>
<path d="M0 0 C2.5 2.0625 2.5 2.0625 4 4 C3.34 3.67 2.68 3.34 2 3 C-2.02985632 1.65671456 -4.74421055 1.59468672 -9 2 C-11.829558 4.10438666 -12.87025561 5.30080243 -13.51898193 8.79681396 C-13.52786438 9.87158997 -13.53674683 10.94636597 -13.54589844 12.05371094 C-13.56561707 13.27467468 -13.58533569 14.49563843 -13.60565186 15.75360107 C-13.60688049 17.06725647 -13.60810913 18.38091187 -13.609375 19.734375 C-13.62435993 21.09631312 -13.64108775 22.45823309 -13.65948486 23.82012939 C-13.7031367 27.39740848 -13.72315223 30.97444246 -13.73822021 34.55194092 C-13.75779946 38.2053475 -13.79976841 41.85848968 -13.83984375 45.51171875 C-13.91512207 52.67440805 -13.96542744 59.83698629 -14 67 C-16.62716557 64.37283443 -16.25790897 63.20768828 -16.2746582 59.54394531 C-16.28419022 58.40225891 -16.29372223 57.26057251 -16.30354309 56.08428955 C-16.30263168 54.84475525 -16.30172028 53.60522095 -16.30078125 52.328125 C-16.30506638 51.05781433 -16.3093515 49.78750366 -16.31376648 48.47869873 C-16.31952036 45.78513859 -16.32093371 43.09196023 -16.31567383 40.3984375 C-16.30989789 36.95739694 -16.32676025 33.51689793 -16.3500185 30.07594681 C-16.36836149 26.7850106 -16.36456884 23.4941031 -16.36328125 20.203125 C-16.372491 18.97168762 -16.38170074 17.74025024 -16.39118958 16.47149658 C-16.33293776 5.67649836 -16.33293776 5.67649836 -13 1 C-8.93752334 -1.66962752 -4.5309777 -1.35267184 0 0 Z " fill="#8A8A8A" transform="translate(267,202)"/>
<path d="M0 0 C-1 2 -2 4 -3 6 C-3.66 6 -4.32 6 -5 6 C-4.67 48.24 -4.34 90.48 -4 134 C-4.66 133.67 -5.32 133.34 -6 133 C-6.09341617 116.24960917 -6.16396575 99.49930276 -6.20724869 82.74871445 C-6.22787935 74.97122239 -6.25600938 67.19389212 -6.30175781 59.41650391 C-6.34161039 52.63820325 -6.36742915 45.86001975 -6.37635398 39.0816052 C-6.38157149 35.49198736 -6.39384439 31.90270474 -6.42292023 28.31319427 C-6.45510624 24.30727734 -6.45596045 20.30194421 -6.45410156 16.29589844 C-6.46848267 15.10403427 -6.48286377 13.9121701 -6.49768066 12.68418884 C-6.49218201 11.59326431 -6.48668335 10.50233978 -6.48101807 9.37835693 C-6.48470524 8.43075375 -6.48839241 7.48315056 -6.49219131 6.50683212 C-5.79731494 2.9676831 -3.8565159 0 0 0 Z " fill="#C8C8C8" transform="translate(181,190)"/>
<path d="M0 0 C-1 2 -2 4 -3 6 C-3.66 6 -4.32 6 -5 6 C-5.33 6.66 -5.66 7.32 -6 8 C-5.62403791 5.21788056 -5.32681541 3.4120716 -3.5625 1.1875 C-2 0 -2 0 0 0 Z " fill="#8F8F8F" transform="translate(181,190)"/>
</svg>
