<?xml version="1.0" encoding="UTF-8"?>
<svg version="1.1" xmlns="http://www.w3.org/2000/svg" width="1024" height="1024">
<path d="M0 0 C1.30904297 0.99580078 1.30904297 0.99580078 2.64453125 2.01171875 C18.24717776 14.1252695 36.21707777 29.29560862 47 46 C47 46.66 47 47.32 47 48 C47.66 48 48.32 48 49 48 C49.22558594 47.29359375 49.45117188 46.5871875 49.68359375 45.859375 C51.26888847 42.41594552 53.47566014 39.95746513 56.0625 37.25 C56.55782227 36.72486816 57.05314453 36.19973633 57.56347656 35.65869141 C58.56974926 34.59579565 59.57932168 33.53601342 60.59228516 32.47949219 C61.814438 31.19502353 63.00941498 29.88480263 64.19921875 28.5703125 C79.53053137 12.15850737 101.2427071 2.98478718 123.5078125 1.875 C141.59083574 1.45323853 157.39037975 5.7747394 171 18 C182.22017914 29.53702805 186.42363393 43.02285085 186.36572266 58.77319336 C186.02955398 74.68877553 178.07515094 87.05090769 167 98 C154.52543942 109.48250584 139.47268907 115.71230652 124 122 C113.87808683 126.12060252 104.86040079 130.53929109 96 137 C96.75011391 140.17724403 96.75011391 140.17724403 99.5 141.9375 C116.47741268 155.66564709 124.99076451 181.60622039 127.69921875 202.48046875 C128.36810684 210.3073281 128.70264851 218.15148579 129 226 C131.85960481 226.9532016 134.70800537 227.61133328 137.64916992 228.25585938 C165.25651204 234.38476806 165.25651204 234.38476806 173 246 C173.71879471 251.12141231 172.94563217 253.8410788 170 258 C150.57257132 273.97516783 121.163846 276.41400184 97.1328125 279.921875 C91.37766755 280.76468502 85.68462606 281.76953243 80 283 C78.73270014 288.11642801 79.46738417 291.39987989 81.0625 296.375 C82.79617462 302.3598196 83.86132427 306.27735146 81 312 C63.5427803 332.99285914 21.65234311 333.65105409 -3.265625 336.04296875 C-82.64496788 343.08072492 -170.65708086 346.88030474 -280 320 C-283.84171492 316.39057482 -286.14570453 313.05234013 -286.3125 307.75 C-286.29520022 301.82482389 -284.6017298 296.59991869 -282.77734375 291.00390625 C-281.70442673 287.98036582 -281.70442673 287.98036582 -283 285 C-286.36175339 283.6694618 -290.09404481 283.68727136 -293.66796875 283.421875 C-295.03342715 283.31548066 -296.39882176 283.20826517 -297.76416016 283.1003418 C-298.84398163 283.01567154 -298.84398163 283.01567154 -299.94561768 282.92929077 C-384.50420828 276.16685959 -384.50420828 276.16685959 -404 255 C-405.60127074 251.79745853 -405.40701607 249.54685436 -405 246 C-401.35314299 238.38697592 -392.49001287 234.82833628 -385 232 C-372.00852862 227.72630886 -358.69477156 224.81402162 -345 225 C-344.8047876 224.45287354 -344.6095752 223.90574707 -344.40844727 223.34204102 C-338.17675412 206.0382065 -331.01210442 190.42228164 -319.96875 175.66015625 C-318.02496931 173.19378095 -318.02496931 173.19378095 -317 171 C-317.61818604 170.93530518 -318.23637207 170.87061035 -318.87329102 170.80395508 C-349.50245976 167.49230945 -349.50245976 167.49230945 -361 159 C-362.56935594 155.86128812 -362.35201103 153.46144178 -362 150 C-357.88030107 145.02794956 -352.86694711 142.53452629 -347.234375 139.65820312 C-337.48811641 134.45707474 -331.03414844 127.44317687 -325.375 118.0625 C-324.79016846 117.11882568 -324.20533691 116.17515137 -323.6027832 115.20288086 C-321.71685887 112.14603785 -319.85573852 109.07525108 -318 106 C-317.03441162 104.40671875 -317.03441162 104.40671875 -316.04931641 102.78125 C-308.20157277 89.82479144 -308.20157277 89.82479144 -300.546875 76.75390625 C-291.76845243 61.57798713 -281.28769826 47.50989257 -269 35 C-268.29681641 34.27248535 -267.59363281 33.5449707 -266.86914062 32.79541016 C-257.75477998 23.37660717 -248.84630011 14.41262086 -238 7 C-236.89293353 6.19276403 -235.78890153 5.38135456 -234.6875 4.56640625 C-207.21859132 -15.67160238 -175.72720754 -29.36002565 -142 -35 C-140.8140625 -35.22300781 -139.628125 -35.44601562 -138.40625 -35.67578125 C-90.41720338 -43.34359631 -38.21065285 -29.94613247 0 0 Z " fill="#222326" transform="translate(613,357)"/>
<path d="M0 0 C0.03963867 1.16756836 0.07927734 2.33513672 0.12011719 3.53808594 C0.27516678 7.9746683 0.4520736 12.41018042 0.63476562 16.84570312 C0.71015913 18.74587498 0.78004275 20.64627545 0.84375 22.546875 C1.19043724 32.77414865 1.86346414 42.76997991 3.828125 52.828125 C3.9802948 53.62055603 4.1324646 54.41298706 4.28924561 55.22943115 C5.70544881 61.88627549 7.543087 68.77163705 12.6875 73.4375 C21.53214826 77.6095039 30.78025894 77.3420276 40.34570312 77.31567383 C42.73093908 77.31252516 45.11491763 77.33599154 47.5 77.36132812 C64.46898802 77.61381882 64.46898802 77.61381882 79 70 C83.36305534 61.77478389 80.79184406 52.47274097 78.6796875 43.93359375 C77.44167377 38.59021267 77.73077254 34.64017503 79.44921875 29.51953125 C81.18976348 23.83737793 81.75766306 18.28230027 82.1875 12.375 C82.3102832 10.86873047 82.3102832 10.86873047 82.43554688 9.33203125 C82.6333474 6.88861299 82.82133331 4.44487878 83 2 C91.71063879 6.22092026 95.8332127 13.07541761 99 22 C99.4989057 23.6569944 99.98628058 25.31748509 100.46484375 26.98046875 C100.71999756 27.86710205 100.97515137 28.75373535 101.23803711 29.66723633 C101.73745915 31.4420168 102.21942457 33.22182328 102.68188477 35.0065918 C104.35228326 41.07215645 106.5027785 44.5881231 111.8125 48.25 C119.32351374 50.82520471 127.77442222 50.21860185 135.61621094 50.24023438 C137.73152379 50.24991544 139.84585249 50.28100502 141.9609375 50.3125 C151.3293656 50.38545621 161.01175774 50.19247505 169.125 45 C171.86996725 40.6080524 172.4029427 36.08835401 173 31 C207.03945422 38.16620089 207.03945422 38.16620089 217 49 C218.53214888 52.06429776 218.22938548 54.6165642 218 58 C213.81998222 66.6701659 203.61986615 70.66701209 194.9765625 73.75390625 C177.69724541 79.31790015 160.04103096 82.30776525 142.1328125 84.921875 C136.37766755 85.76468502 130.68462606 86.76953243 125 88 C123.73270014 93.11642801 124.46738417 96.39987989 126.0625 101.375 C127.79617462 107.3598196 128.86132427 111.27735146 126 117 C108.5427803 137.99285914 66.65234311 138.65105409 41.734375 141.04296875 C-37.64496788 148.08072492 -125.65708086 151.88030474 -235 125 C-238.84171492 121.39057482 -241.14570453 118.05234013 -241.3125 112.75 C-241.29520022 106.82482389 -239.6017298 101.59991869 -237.77734375 96.00390625 C-236.70442673 92.98036582 -236.70442673 92.98036582 -238 90 C-241.36175339 88.6694618 -245.09404481 88.68727136 -248.66796875 88.421875 C-250.03342715 88.31548066 -251.39882176 88.20826517 -252.76416016 88.1003418 C-253.48404114 88.04389496 -254.20392212 87.98744812 -254.94561768 87.92929077 C-339.50420828 81.16685959 -339.50420828 81.16685959 -359 60 C-360.60127074 56.79745853 -360.40701607 54.54685436 -360 51 C-356.35314299 43.38697592 -347.49001287 39.82833628 -340 37 C-327.54139623 32.90160168 -314.1738532 29.49331334 -301 30 C-299.8935131 33.31946071 -300.14239292 34.37715224 -300.9375 37.6875 C-302.79487267 45.99421898 -302.79487267 45.99421898 -300.3125 53.875 C-292.0167422 61.49812879 -278.04667187 60.3727644 -267.46899414 60.37060547 C-265.07040701 60.37498556 -262.67365478 60.41142762 -260.27539062 60.44921875 C-251.8051585 60.51276002 -243.50485351 60.51331745 -236 56 C-232.15839146 51.87320655 -230.17012748 47.64247108 -228.42382812 42.33081055 C-228.15638794 41.51992477 -227.88894775 40.709039 -227.61340332 39.87358093 C-227.30976868 38.94615837 -227.30976868 38.94615837 -227 38 C-225.84064941 37.98018066 -224.68129883 37.96036133 -223.48681641 37.93994141 C-219.14416486 37.86329132 -214.80182273 37.77467048 -210.45947266 37.68261719 C-208.58779046 37.64457093 -206.7160412 37.60967778 -204.84423828 37.578125 C-202.13810408 37.53194031 -199.43242212 37.47404023 -196.7265625 37.4140625 C-195.90322418 37.40251129 -195.07988586 37.39096008 -194.2315979 37.37905884 C-185.73389127 37.16802007 -176.50699935 36.67392525 -170.3125 30.25 C-167.63306468 25.6566823 -166.9284531 20.67442469 -166.0625 15.5 C-165.2373958 10.89211039 -164.38024387 7.05523029 -162 3 C-158.00177611 1.67778074 -154.55710185 2.14207266 -150.44140625 2.7421875 C-149.16716797 2.92136719 -147.89292969 3.10054687 -146.58007812 3.28515625 C-145.24078971 3.48111787 -143.901597 3.67773465 -142.5625 3.875 C-126.30479216 6.22883688 -110.34291128 7.23690463 -93.9375 7.25 C-93.05171265 7.25100708 -92.16592529 7.25201416 -91.2532959 7.25305176 C-63.52245645 7.23200885 -36.1377891 4.60822175 -8.75610352 0.31958008 C-5.81467455 -0.02148915 -2.9585082 -0.05373155 0 0 Z " fill="#9BDAFD" transform="translate(568,552)"/>
<path d="M0 0 C1.72573242 -0.0299707 1.72573242 -0.0299707 3.48632812 -0.06054688 C14.8285849 -0.05412067 24.82304779 3.01970408 33.5625 10.4375 C42.40668019 19.56189184 45.25905105 28.86013597 45.16943359 41.32543945 C44.65984284 53.56890068 38.28520398 62.22948973 29.5625 70.4375 C18.38410377 80.43030876 4.73234558 86.12014647 -9.125 91.4375 C-23.93617666 97.2476722 -36.65913751 106.10645575 -49.4375 115.4375 C-67.50918344 128.58125247 -67.50918344 128.58125247 -75.75 134.125 C-76.35408691 134.53508301 -76.95817383 134.94516602 -77.58056641 135.36767578 C-80.76011483 137.4822605 -83.83126709 139.17227382 -87.4375 140.4375 C-87.829375 139.365 -88.22125 138.2925 -88.625 137.1875 C-89.22771751 135.60361446 -89.83207684 134.02035331 -90.4375 132.4375 C-90.78941406 131.48488281 -91.14132812 130.53226563 -91.50390625 129.55078125 C-95.38422852 119.54902648 -101.46322918 109.42463541 -111.4375 104.4375 C-116.10035278 104.01371401 -116.10035278 104.01371401 -120.375 105.5625 C-121.99574231 108.42263349 -121.95492613 110.20358669 -121.4375 113.4375 C-119.04980148 116.38700994 -116.79987567 118.22744824 -113.51953125 120.12890625 C-109.7661329 122.94038714 -108.2292901 125.58299456 -106.25 129.75 C-105.73856445 130.81069702 -105.73856445 130.81069702 -105.21679688 131.89282227 C-94.65441967 154.83330448 -98.60598197 184.40322548 -106.5390625 207.66796875 C-108.98317854 215.20222212 -106.70450004 221.11333083 -104.33984375 228.3671875 C-103.2565045 232.05335481 -102.84873419 234.65257695 -103.4375 238.4375 C-110.21053116 242.95285411 -120.01350473 241.62070645 -127.875 241.625 C-129.05126953 241.63724609 -130.22753906 241.64949219 -131.43945312 241.66210938 C-138.07091459 241.67322977 -144.08479619 241.43218317 -150.4375 239.4375 C-152.23079225 236.44867958 -152.77182131 234.780158 -153.4375 231.4375 C-153.83195312 229.53677734 -153.83195312 229.53677734 -154.234375 227.59765625 C-155.04037725 223.5544781 -155.76168355 219.50461224 -156.4375 215.4375 C-156.62570312 214.40625 -156.81390625 213.375 -157.0078125 212.3125 C-157.6657444 206.37915054 -157.67245301 200.46575635 -157.6875 194.5 C-157.68983643 193.84287018 -157.69217285 193.18574036 -157.69458008 192.50869751 C-157.70942485 181.36887481 -156.75372089 170.52923341 -155.09375 159.51171875 C-154.41393167 154.7484704 -154.17158164 150.24777323 -154.4375 145.4375 C-157.01740801 142.85759199 -158.93994461 143.12151162 -162.46484375 142.9765625 C-164.56587311 143.29450094 -164.56587311 143.29450094 -166.125 145.015625 C-167.84657519 148.19234113 -168.11472503 150.97906872 -168.5 154.5625 C-169.22746499 161.22746499 -169.22746499 161.22746499 -171.4375 163.4375 C-173.39933777 163.89906311 -173.39933777 163.89906311 -175.83276367 164.19946289 C-176.74519333 164.31620865 -177.65762299 164.43295441 -178.59770203 164.55323792 C-179.59026505 164.67102097 -180.58282806 164.78880402 -181.60546875 164.91015625 C-182.63247391 165.03813095 -183.65947906 165.16610565 -184.71760559 165.29795837 C-186.90197538 165.56835554 -189.08686832 165.83455379 -191.2722168 166.09692383 C-194.56751413 166.49308897 -197.860932 166.9025658 -201.15429688 167.31445312 C-255.19812434 173.99949541 -315.68689462 174.19160729 -368.4375 158.4375 C-366.86421805 155.03921098 -364.88779498 152.08077855 -362.7421875 149.015625 C-362.02675781 147.99082031 -361.31132812 146.96601562 -360.57421875 145.91015625 C-359.82785156 144.84667969 -359.08148438 143.78320312 -358.3125 142.6875 C-357.55839844 141.60855469 -356.80429687 140.52960938 -356.02734375 139.41796875 C-354.16642389 136.75614668 -352.30306256 134.09606927 -350.4375 131.4375 C-349.72956299 131.54819824 -349.02162598 131.65889648 -348.29223633 131.77294922 C-344.94577154 132.29244727 -341.59791654 132.80244464 -338.25 133.3125 C-337.13818359 133.48652344 -336.02636719 133.66054688 -334.88085938 133.83984375 C-317.70439231 136.43796482 -300.67838642 137.76279068 -283.30566406 137.64331055 C-280.54222452 137.62486466 -277.77912032 137.62280344 -275.015625 137.62304688 C-258.68773097 137.59448761 -242.92141467 136.4460054 -226.83251953 133.64599609 C-224.20663241 133.19081647 -221.57827452 132.75286387 -218.94921875 132.31640625 C-207.25027326 130.33336617 -195.84893966 127.68295206 -184.4375 124.4375 C-183.43009766 124.15342285 -182.42269531 123.8693457 -181.38476562 123.57666016 C-154.803011 115.79701164 -130.06697805 102.90145273 -109.4375 84.4375 C-108.02175771 83.20726876 -106.60522255 81.97794866 -105.1875 80.75 C-104.26517578 79.93208984 -104.26517578 79.93208984 -103.32421875 79.09765625 C-101.98762724 77.92156641 -100.63420987 76.76447314 -99.26953125 75.62109375 C-94.18164625 71.28632082 -89.96439031 66.64717425 -85.8125 61.4140625 C-83.29410791 58.2577882 -80.68935104 55.19066245 -78.0625 52.125 C-74.1731624 47.56685193 -70.42760367 42.91776266 -66.75 38.1875 C-49.65470193 16.35853084 -28.87526375 -0.17734668 0 0 Z " fill="#FDFDFD" transform="translate(739.4375,374.5625)"/>
<path d="M0 0 C2.97896876 1.23544109 5.68119223 2.8336757 8.4375 4.5 C10.01775208 5.4197304 11.59982576 6.33633726 13.18359375 7.25 C13.98007324 7.71148437 14.77655273 8.17296875 15.59716797 8.6484375 C19.98571073 11.11693707 24.51326972 13.30271835 29.04858398 15.48632812 C31.73481315 16.79454985 33.87037536 17.87037536 36 20 C36.40866089 22.20271301 36.40866089 22.20271301 36.62841797 24.98754883 C36.7117337 26.03577316 36.79504944 27.0839975 36.88088989 28.16398621 C36.9588681 29.31256607 37.03684631 30.46114594 37.1171875 31.64453125 C37.20169159 32.8425386 37.28619568 34.04054596 37.3732605 35.27485657 C38.257461 49.06859548 38.23111654 62.85176062 38.1373291 76.66766357 C38.11632624 80.10849385 38.10762303 83.54935758 38.09765625 86.99023438 C38.07598757 93.66023751 38.04282393 100.33010079 38 107 C29.84599852 107.64017761 21.73439392 108.16077542 13.5546875 108.203125 C12.6282695 108.20995804 11.7018515 108.21679108 10.74736023 108.22383118 C7.78986873 108.24070938 4.83253671 108.24714608 1.875 108.25 C0.86363983 108.25200409 -0.14772034 108.25400818 -1.18972778 108.256073 C-17.65729537 108.26404776 -33.6917151 107.41017105 -50 105 C-51.40749869 104.80040435 -52.81504267 104.60112754 -54.22265625 104.40234375 C-55.13917969 104.26957031 -56.05570312 104.13679688 -57 104 C-58.57584006 98.98596344 -57.40824256 94.62741169 -56.375 89.625 C-56.19187256 88.70307861 -56.00874512 87.78115723 -55.82006836 86.83129883 C-54.27650595 79.14328277 -52.65900846 71.4661914 -50.90527344 63.82324219 C-49.75859682 58.78296141 -48.79504005 53.79126861 -48.09765625 48.66796875 C-46.38004693 36.9860637 -44.53531851 29.35281598 -34.86279297 22.04150391 C-33.54146429 21.10319694 -32.20874864 20.18068489 -30.86425781 19.27587891 C-28.18004167 17.43882894 -25.73180993 15.34916777 -23.25 13.25 C-21.950625 12.20779297 -21.950625 12.20779297 -20.625 11.14453125 C-18.75823812 9.61945346 -16.92813978 8.04901533 -15.125 6.44921875 C-14.17625 5.62035156 -13.2275 4.79148437 -12.25 3.9375 C-10.98929687 2.80634766 -10.98929687 2.80634766 -9.703125 1.65234375 C-6.09079034 -0.55577411 -4.18733402 -0.59692724 0 0 Z " fill="#FDFDFD" transform="translate(458,390)"/>
<path d="M0 0 C3.21448686 1.54974409 5.79037373 3.30186985 8.5625 5.5625 C9.87734375 6.62984375 9.87734375 6.62984375 11.21875 7.71875 C19.5625 14.5625 19.5625 14.5625 22.31640625 16.859375 C24.92583616 19.0077914 24.92583616 19.0077914 27.58984375 20.703125 C31.98566392 23.63842145 34.34479566 25.74119942 35.48828125 31 C35.845271 32.59678589 35.845271 32.59678589 36.20947266 34.22583008 C36.47034668 35.47130615 36.7312207 36.71678223 37 38 C37.32631719 39.49590403 37.65368922 40.99157822 37.98193359 42.48706055 C38.89462983 46.67743107 39.77543252 50.87382493 40.64428711 55.07348633 C41.18898487 57.69464538 41.74585218 60.31304701 42.30273438 62.93164062 C42.65440042 64.62484345 43.00533729 66.31819792 43.35546875 68.01171875 C43.52104782 68.78069992 43.68662689 69.54968109 43.85722351 70.34196472 C44.93429935 75.64848691 45.14133213 80.58473031 45 86 C28.25984566 94.22864729 11.2120169 100.63204156 -6.8125 105.4375 C-7.78378342 105.69779495 -7.78378342 105.69779495 -8.77468872 105.96334839 C-15.52504946 107.75917621 -22.06243618 109.22233937 -29 110 C-29.26325634 100.74111168 -29.52419547 91.48216162 -29.78230286 82.22312832 C-29.9022658 77.92223901 -30.02298034 73.62137372 -30.14550781 69.32055664 C-30.26406982 65.15790323 -30.38053322 60.99519559 -30.49563599 56.83244514 C-30.53955745 55.25669382 -30.58419258 53.68096219 -30.62960815 52.10525322 C-30.73460119 48.45504727 -30.83024752 44.80529905 -30.90136719 41.15426636 C-30.95682757 38.35287442 -31.06872242 35.56097034 -31.21582031 32.76296997 C-31.26554546 31.4202074 -31.31472367 30.07742444 -31.36328125 28.73461914 C-31.42169189 27.55992569 -31.48010254 26.38523224 -31.5402832 25.17494202 C-30.71352772 20.31656276 -27.63436636 18.25481569 -23.77709961 15.48608398 C-23.22030518 15.15938721 -22.66351074 14.83269043 -22.08984375 14.49609375 C-19.04280374 12.65057512 -16.07531841 10.72566157 -13.12890625 8.72265625 C-8.7813332 5.77022546 -4.40212342 2.87033609 0 0 Z " fill="#FDFDFD" transform="translate(540,385)"/>
<path d="M0 0 C3.75812043 1.33733979 6.58868967 3.00212372 9.73046875 5.44921875 C10.61669922 6.13306641 11.50292969 6.81691406 12.41601562 7.52148438 C13.33060547 8.23626953 14.24519531 8.95105469 15.1875 9.6875 C16.99194747 11.08922701 18.79793215 12.48897745 20.60546875 13.88671875 C21.48895996 14.58587402 22.37245117 15.2850293 23.28271484 16.00537109 C25.95943136 18.05963711 25.95943136 18.05963711 28.93994141 19.62353516 C31.7676818 21.22366813 33.87836401 22.53348605 36 25 C36.77145844 29.53945615 35.96175295 33.53608691 35 38 C34.71721191 39.52318848 34.71721191 39.52318848 34.42871094 41.07714844 C33.81422095 44.19616599 33.10747838 47.28165845 32.375 50.375 C31.98610596 52.06943237 31.98610596 52.06943237 31.58935547 53.7980957 C31.0311451 56.22996712 30.46934682 58.66101726 29.90429688 61.09130859 C28.93387703 65.27169118 27.98873457 69.45763427 27.046875 73.64453125 C26.88607452 74.35927612 26.72527405 75.074021 26.55960083 75.8104248 C26.23933144 77.23430307 25.91910997 78.65819211 25.59893799 80.08209229 C24.40428373 85.38918806 23.20140295 90.69442882 22 96 C18.858079 97.01375079 16.94840913 96.96577432 13.796875 96.03125 C12.99040527 95.7940625 12.18393555 95.556875 11.35302734 95.3125 C10.06452881 94.9103125 10.06452881 94.9103125 8.75 94.5 C7.85104004 94.2215625 6.95208008 93.943125 6.02587891 93.65625 C-12.25693282 87.84415161 -32.86779392 78.93614132 -48 67 C-39.60813139 44.18460723 -21.18376667 18.8213959 -2.56640625 3.41015625 C-0.88011959 2.06484263 -0.88011959 2.06484263 0 0 Z " fill="#FDFDFD" transform="translate(363,393)"/>
<path d="M0 0 C1.08200684 0.1652417 2.16401367 0.3304834 3.27880859 0.50073242 C9.53023352 1.53260115 15.29763523 3.01451328 21.25 5.1875 C19.24557704 15.92086166 16.02154321 30.15911794 7.3125 37.3125 C5.31822167 38.6448003 3.293514 39.93202373 1.25 41.1875 C-0.89272593 42.69183419 -3.01114308 44.22758409 -5.13208008 45.76245117 C-8.01407221 47.83446141 -10.93343425 49.84984481 -13.85449219 51.86621094 C-15.47371846 52.99491426 -17.07129936 54.15456361 -18.6640625 55.3203125 C-19.82035156 56.15175781 -19.82035156 56.15175781 -21 57 C-21.93585938 57.69029297 -21.93585938 57.69029297 -22.890625 58.39453125 C-25.52464643 59.51786392 -26.98983478 58.90737335 -29.75 58.1875 C-31.7882189 57.332196 -33.80126263 56.41566984 -35.79296875 55.45703125 C-36.94990234 54.90080078 -38.10683594 54.34457031 -39.29882812 53.77148438 C-39.89767822 53.47975342 -40.49652832 53.18802246 -41.11352539 52.88745117 C-42.91109169 52.01284891 -44.71430605 51.14988603 -46.51757812 50.28710938 C-49.95000673 48.62699294 -53.35338401 46.91955593 -56.75 45.1875 C-57.74725098 44.69813965 -58.74450195 44.2087793 -59.77197266 43.70458984 C-66.11135599 40.33718417 -66.11135599 40.33718417 -67.74829102 37.39038086 C-68.31157119 35.30407069 -68.55836968 33.33928927 -68.75 31.1875 C-69.02812595 29.53808637 -69.31225057 27.88967589 -69.6015625 26.2421875 C-69.86346639 24.51624089 -70.12123408 22.7896619 -70.375 21.0625 C-70.5090625 20.19496094 -70.643125 19.32742188 -70.78125 18.43359375 C-71.44622649 13.97553707 -71.91310458 9.70994512 -71.75 5.1875 C-64.88557354 3.32259801 -58.00250206 1.79424312 -51 0.5625 C-49.95598022 0.37820435 -49.95598022 0.37820435 -48.89086914 0.19018555 C-32.38838769 -2.64388956 -16.56437063 -2.53993302 0 0 Z " fill="#FCFCFC" transform="translate(525.75,335.8125)"/>
<path d="M0 0 C17.97849966 12.49195753 25.39293032 34.99526643 29.265625 55.57421875 C30.67615169 64.49580009 30.36733083 73.56760261 30.265625 82.57421875 C22.16335891 84.56424902 14.19680494 84.79417832 5.890625 84.82421875 C4.32151367 84.83775391 4.32151367 84.83775391 2.72070312 84.8515625 C-8.41612208 84.80864603 -8.41612208 84.80864603 -11.734375 82.57421875 C-13.54541076 78.90164026 -14.62494724 75.06907606 -15.734375 71.13671875 C-19.63759915 57.74832913 -24.30375211 48.13136878 -34.671875 38.63671875 C-36.23367021 37.20200207 -37.78510457 35.75589651 -39.32421875 34.296875 C-40.34310181 33.36500366 -40.34310181 33.36500366 -41.38256836 32.41430664 C-42.734375 30.57421875 -42.734375 30.57421875 -42.70117188 28.52880859 C-41.43931449 25.97768985 -40.07423813 25.10191935 -37.67578125 23.578125 C-36.82306641 23.02511719 -35.97035156 22.47210937 -35.09179688 21.90234375 C-34.16947266 21.3196875 -33.24714844 20.73703125 -32.296875 20.13671875 C-26.58917173 16.46216442 -20.92880741 12.79110935 -15.51171875 8.6953125 C-14.70468506 8.08679443 -13.89765137 7.47827637 -13.06616211 6.85131836 C-11.53641787 5.68547098 -10.01719746 4.5056562 -8.51000977 3.31079102 C-3.42968614 -0.53405113 -3.42968614 -0.53405113 0 0 Z " fill="#FCFCFC" transform="translate(696.734375,504.42578125)"/>
<path d="M0 0 C4.50718159 1.39736329 8.63294209 3.18930666 12.875 5.25 C20.73596003 9.0097627 28.80334226 12.05954328 37 15 C37 19.2552075 36.72073281 19.88165688 34.359375 23.1328125 C33.50315552 24.32994873 33.50315552 24.32994873 32.62963867 25.55126953 C32.00935791 26.40060059 31.38907715 27.24993164 30.75 28.125 C29.46832316 29.91543028 28.18841215 31.70712578 26.91015625 33.5 C26.25934082 34.41007813 25.60852539 35.32015625 24.93798828 36.2578125 C21.94325149 40.49526319 19.05743929 44.80240814 16.1875 49.125 C15.67864258 49.88828613 15.16978516 50.65157227 14.64550781 51.43798828 C10.93431691 56.95856255 10.93431691 56.95856255 9.6875 63.375 C9.35490517 66.50945431 9.11299185 67.83260467 7.3125 70.5 C1.3961454 74.33763542 -6.95806057 73.18367571 -13.75 73.1875 C-15.44382812 73.20586914 -15.44382812 73.20586914 -17.171875 73.22460938 C-24.02753093 73.23651156 -30.34381454 72.66593411 -37 71 C-33.04158512 43.92808211 -17.28430135 20.47573542 0 0 Z " fill="#FCFCFC" transform="translate(317,526)"/>
<path d="M0 0 C3.86926607 1.588608 6.31612749 4.07244084 9.24609375 7.015625 C9.98558006 7.75579865 9.98558006 7.75579865 10.74000549 8.51092529 C11.78030106 9.55423472 12.81817236 10.59996632 13.85375977 11.64794922 C15.42354347 13.23588211 17.00107334 14.81577292 18.58007812 16.39453125 C23.2720706 21.109288 27.79549833 25.84435021 32 31 C30.56995842 35.52157657 28.03971619 38.46091053 24.8125 41.8125 C23.80774167 42.87810347 22.80383402 43.94450968 21.80078125 45.01171875 C21.31561035 45.52524902 20.83043945 46.0387793 20.33056641 46.56787109 C18.65729885 48.36885962 17.07773502 50.24016328 15.5 52.125 C8.55684807 60.04606065 0.60888873 66.47690377 -7.9375 72.5625 C-8.67145996 73.0874707 -9.40541992 73.61244141 -10.16162109 74.15332031 C-10.85980957 74.64026367 -11.55799805 75.12720703 -12.27734375 75.62890625 C-12.89859131 76.06275635 -13.51983887 76.49660645 -14.15991211 76.94360352 C-16.09798597 78.05625385 -17.81713779 78.56547804 -20 79 C-22.60497001 69.0169783 -24.96885491 58.97805126 -27.26730347 48.92068481 C-27.5882866 47.51878585 -27.91113329 46.11731223 -28.23587036 44.71627808 C-28.69916845 42.71440019 -29.15517642 40.71099073 -29.609375 38.70703125 C-29.87717773 37.5363208 -30.14498047 36.36561035 -30.42089844 35.15942383 C-30.94567626 32.29637584 -31.30822999 29.89110344 -31 27 C-29.11125997 24.85001929 -27.33932877 23.09657074 -25.1875 21.25 C-24.30650635 20.46665283 -24.30650635 20.46665283 -23.40771484 19.66748047 C-18.85715659 15.65213759 -14.186897 11.78236669 -9.45703125 7.98046875 C-6.24246053 5.38939188 -3.11987892 2.70389506 0 0 Z " fill="#FDFCFC" transform="translate(620,384)"/>
<path d="M0 0 C0.70040743 4.24797777 1.38308614 8.49861822 2.0625 12.75 C2.26166016 13.9565625 2.46082031 15.163125 2.66601562 16.40625 C2.84970703 17.56640625 3.03339844 18.7265625 3.22265625 19.921875 C3.39547119 20.99018555 3.56828613 22.05849609 3.74633789 23.15917969 C3.98550095 25.83762179 3.95094818 27.50902377 3 30 C1.1015625 32.04296875 1.1015625 32.04296875 -1.375 34.1875 C-2.2825 34.97640625 -3.19 35.7653125 -4.125 36.578125 C-7.76082815 39.64091502 -11.4199638 42.6696726 -15.125 45.6484375 C-17.18353039 47.33218111 -19.19338659 49.03274591 -21.1875 50.7890625 C-21.71939941 51.25127197 -22.25129883 51.71348145 -22.79931641 52.18969727 C-24.2975064 53.49498427 -25.78576016 54.81165017 -27.2734375 56.12890625 C-30 58 -30 58 -32.3828125 58.6171875 C-36.48468989 57.6498791 -39.25173526 55.16517603 -42.5 52.5625 C-43.91509473 51.46281795 -45.33178662 50.36518835 -46.75 49.26953125 C-47.45769531 48.71990723 -48.16539062 48.1702832 -48.89453125 47.60400391 C-52.02721124 45.21744227 -55.24968614 42.9724798 -58.5 40.75 C-59.5621875 40.02296875 -60.624375 39.2959375 -61.71875 38.546875 C-62.84796875 37.78117187 -62.84796875 37.78117187 -64 37 C-62.43685886 32.4082729 -58.75494545 30.18933859 -55 27.4375 C-54.29230469 26.91446289 -53.58460938 26.39142578 -52.85546875 25.85253906 C-11.94075167 -3.9019903 -11.94075167 -3.9019903 0 0 Z " fill="#FCFCFC" transform="translate(440,348)"/>
<path d="M0 0 C3.97521603 0.5905115 6.82528313 1.8276035 10.2890625 3.84375 C11.81067993 4.71773438 11.81067993 4.71773438 13.36303711 5.609375 C14.43948486 6.23328125 15.51593262 6.8571875 16.625 7.5 C32.97097717 16.791323 48.99892974 24.51580297 67 30 C61.82843127 38.80755221 55.72403844 46.35186224 49 54 C29.85409479 51.25366114 11.74160034 38.96871713 -3.13183594 27.42480469 C-6.03665696 25.20936618 -9.0149428 23.10573802 -12 21 C-10.32508169 16.11963459 -7.63208039 12.00847052 -4.875 7.6875 C-4.40707031 6.94693359 -3.93914062 6.20636719 -3.45703125 5.44335938 C-2.30835804 3.62658032 -1.15467631 1.81296963 0 0 Z " fill="#FCFCFC" transform="translate(307,472)"/>
<path d="M0 0 C4.5682733 0.80513067 8.33436275 2.45565775 12.4375 4.5625 C13.13979736 4.92037598 13.84209473 5.27825195 14.56567383 5.64697266 C16.71690802 6.75274045 18.85999952 7.87266051 21 9 C21.62712891 9.3295166 22.25425781 9.6590332 22.90039062 9.99853516 C32.00999916 14.8420242 40.00770612 20.52119699 48 27 C46.4191477 31.37854486 42.97895421 33.82595703 39.5 36.6875 C38.23054339 37.74592539 36.96232305 38.80583522 35.6953125 39.8671875 C35.06915039 40.39151367 34.44298828 40.91583984 33.79785156 41.45605469 C32.15079828 42.8704986 30.56295228 44.32215955 28.9921875 45.8203125 C28.12851562 46.64273438 27.26484375 47.46515625 26.375 48.3125 C25.61960937 49.05113281 24.86421875 49.78976562 24.0859375 50.55078125 C22 52 22 52 20.00390625 51.94140625 C17.53473969 50.78142742 15.66830058 49.36503758 13.5625 47.625 C12.69496094 46.91214844 11.82742188 46.19929688 10.93359375 45.46484375 C7.10144531 42.24502263 3.27144658 39.02261542 -0.53295898 35.77001953 C-3.29073211 33.4164138 -6.0670507 31.13241 -9 29 C-8.48864775 22.11703639 -6.48692361 16.3845669 -3.9375 10 C-3.37192383 8.55173828 -3.37192383 8.55173828 -2.79492188 7.07421875 C-1.87140115 4.71281132 -0.93964767 2.3550259 0 0 Z " fill="#FBFBFB" transform="translate(561,346)"/>
<path d="M0 0 C7.40788271 1.07626117 14.71500286 2.27135661 22 4 C21.37713159 6.68800977 20.75176793 9.3753992 20.125 12.0625 C19.95097656 12.81466797 19.77695312 13.56683594 19.59765625 14.34179688 C18.52335236 18.93743017 17.33465943 23.47297949 16 28 C8.28847276 29.05648755 0.71334179 29.11624053 -7.0625 29.0625 C-8.30966797 29.05798828 -9.55683594 29.05347656 -10.84179688 29.04882812 C-13.89458221 29.03713163 -16.94726498 29.02074086 -20 29 C-16.75862013 22.81363102 -13.13963293 17.21237982 -8.875 11.6875 C-8.35035156 10.99849609 -7.82570313 10.30949219 -7.28515625 9.59960938 C-6.28975531 8.29298814 -5.29219081 6.98801094 -4.29199219 5.68505859 C-2.84710023 3.8005831 -1.41929798 1.90381695 0 0 Z " fill="#FBFBFB" transform="translate(370,547)"/>
<path d="M0 0 C2.82424288 2.19022918 4.41508603 3.83017207 6 7 C6.2262475 12.0069555 5.69507747 15.16929766 2.4375 19.0625 C-1.66706584 21.37598256 -4.4070603 22.10486223 -9 21 C-12.41184222 19.07696166 -14.42958014 17.65940323 -15.73046875 13.875 C-16.46823313 9.55067808 -16.24497853 7.47306199 -14.1875 3.5 C-10.25758023 -0.99133688 -5.69330367 -0.82355965 0 0 Z " fill="#232426" transform="translate(742,395)"/>
<path d="M0 0 C1.44319692 0.90767102 2.87934106 1.82656106 4.3125 2.75 C5.11300781 3.26046875 5.91351563 3.7709375 6.73828125 4.296875 C9.00368861 6.00277761 10.42684167 7.65808145 12 10 C4.31604457 10.2137731 -2.56340812 10.01670288 -10 8 C-6.97727468 4.74475735 -3.74281699 2.38179263 0 0 Z " fill="#F5F5F5" transform="translate(284,502)"/>
<path d="M0 0 C5.46945033 2.73472516 9.72086217 6.38610965 12.4375 11.9375 C12.623125 12.618125 12.80875 13.29875 13 14 C12.34 14 11.68 14 11 14 C10.401875 13.0925 9.80375 12.185 9.1875 11.25 C7.05775059 8.08580088 5.06626439 6.21452428 2 4 C1.67 5.65 1.34 7.3 1 9 C0.67 9 0.34 9 0 9 C0 6.03 0 3.06 0 0 Z " fill="#94C6DD" transform="translate(651,554)"/>
<path d="M0 0 C0.33 0.99 0.66 1.98 1 3 C-0.45217676 4.50596108 -1.91192861 6.00462104 -3.375 7.5 C-4.18710937 8.3353125 -4.99921875 9.170625 -5.8359375 10.03125 C-8 12 -8 12 -10 12 C-8.52278578 8.54798361 -6.56205999 6.35038064 -3.875 3.75 C-3.15054687 3.04359375 -2.42609375 2.3371875 -1.6796875 1.609375 C-1.12539063 1.07828125 -0.57109375 0.5471875 0 0 Z " fill="#303133" transform="translate(346,390)"/>
<path d="M0 0 C0.66 0.66 1.32 1.32 2 2 C-3.14285714 6.42857143 -3.14285714 6.42857143 -7 7 C-4.78071806 4.09197539 -3.07030857 2.04687238 0 0 Z " fill="#2F3032" transform="translate(366,371)"/>
<path d="M0 0 C2.38672669 2.96283313 4.7353371 5.94270509 7 9 C6.01 9 5.02 9 4 9 C0.8217901 5.7309841 0 4.67834007 0 0 Z " fill="#313133" transform="translate(653,532)"/>
</svg>
