<?xml version="1.0" encoding="UTF-8"?>
<svg version="1.1" xmlns="http://www.w3.org/2000/svg" width="804" height="858">
<path d="M0 0 C265.32 0 530.64 0 804 0 C804 283.14 804 566.28 804 858 C538.68 858 273.36 858 0 858 C0 574.86 0 291.72 0 0 Z " fill="#FEFEFE" transform="translate(0,0)"/>
<path d="M0 0 C5.27404889 2.09287654 8.36139178 4.86669583 11.13981533 9.87109768 C12.77083273 13.90776195 12.54827036 18.01888533 12.50793457 22.31687927 C12.51417453 23.34218736 12.5204145 24.36749545 12.52684355 25.42387348 C12.54277181 28.85239776 12.53016937 32.28021094 12.51757812 35.70874023 C12.52299932 38.16967178 12.53012196 40.63060007 12.53881836 43.09152222 C12.55516229 49.0777944 12.55277283 55.06378854 12.5411678 61.05004983 C12.53212466 65.91682204 12.53091327 70.78353804 12.53526306 75.65031624 C12.53587599 76.3436737 12.53648893 77.03703116 12.53712043 77.75139945 C12.53839937 79.16006987 12.53969622 80.56874029 12.5410108 81.97741068 C12.55241071 95.17955619 12.53931261 108.3815905 12.51780933 121.58371777 C12.4999428 132.90327965 12.50303986 144.22267742 12.52148438 155.54223633 C12.54290835 168.69642257 12.55130797 181.85051139 12.53903532 195.00471264 C12.53776117 196.40843108 12.53650368 197.81214953 12.53526306 199.215868 C12.53464596 199.90646906 12.53402886 200.59707013 12.53339306 201.3085985 C12.52994443 206.16706944 12.53575804 211.0254784 12.54518127 215.88393974 C12.55759549 222.42819473 12.54870985 228.97218825 12.52560425 235.5164299 C12.52031807 237.91739322 12.52182933 240.31838263 12.53065491 242.71933556 C12.54159709 245.99862047 12.5278614 249.27691514 12.50793457 252.55613708 C12.51685746 253.50468754 12.52578034 254.45323799 12.53497362 255.4305324 C12.46435262 261.42864419 11.41883185 265.99589409 8 271 C3.20892578 275.55736328 -0.83393538 276.39552813 -7.25534058 276.31719971 C-12.03668523 275.76462072 -15.87101417 273.65229338 -20.06640625 271.3984375 C-20.98534164 270.92435455 -21.90427704 270.45027161 -22.85105896 269.96182251 C-25.76511409 268.45166541 -28.66326081 266.91337181 -31.5625 265.375 C-33.51146436 264.3641378 -35.46132775 263.35500699 -37.41210938 262.34765625 C-39.29770282 261.36617208 -41.18249611 260.38314882 -43.06640625 259.3984375 C-43.92915665 258.94818207 -44.79190704 258.49792664 -45.68080139 258.0340271 C-49.81197816 255.83852837 -53.88791486 253.55511221 -57.87084961 251.10009766 C-58.5701207 250.67314606 -59.26939178 250.24619446 -59.98985291 249.80630493 C-63.89733047 246.29507134 -66.16533787 242.17680144 -66.50615788 236.95945072 C-66.52922532 235.4496269 -66.5307856 233.93937258 -66.5146637 232.42945862 C-66.52160922 231.59199394 -66.52855475 230.75452926 -66.53571075 229.89168686 C-66.55393751 227.09882188 -66.54372862 224.30681051 -66.53344727 221.51391602 C-66.54050792 219.50617845 -66.54925356 217.49844621 -66.55955505 215.49072266 C-66.58204219 210.04647142 -66.57911081 204.60251099 -66.57023358 199.15823102 C-66.56512073 194.61046311 -66.5724187 190.0627497 -66.57970566 185.51498741 C-66.59670254 174.78525232 -66.59314088 164.05565946 -66.57641602 153.32592773 C-66.55949328 142.26213383 -66.575332 131.19873442 -66.6076389 120.1349836 C-66.63434138 110.6298832 -66.64160904 101.12490556 -66.63312382 91.61977142 C-66.62819676 85.94544115 -66.63039853 80.27134825 -66.65091133 74.59704781 C-66.66927867 69.26086725 -66.66329645 63.92525385 -66.63871193 58.5891037 C-66.6337075 56.63320384 -66.63718421 54.67726068 -66.64986038 52.72139549 C-66.66582459 50.04612302 -66.65080916 47.37271054 -66.62818909 44.69752502 C-66.64002482 43.92795819 -66.65186054 43.15839136 -66.66405493 42.36550432 C-66.56477359 36.56539141 -64.72737742 32.45526678 -61 28 C-58.61453967 26.13386458 -56.14658101 24.78309251 -53.4375 23.4375 C-52.68243164 23.04038818 -51.92736328 22.64327637 -51.14941406 22.23413086 C-49.43233101 21.33149658 -47.71081743 20.43725902 -45.98583984 19.54980469 C-42.57232871 17.77801657 -39.18494734 15.95976206 -35.80078125 14.1328125 C-30.8973737 11.48826605 -25.99173429 8.84821493 -21.078125 6.22265625 C-20.05106445 5.67359619 -19.02400391 5.12453613 -17.96582031 4.55883789 C-6.94476137 -1.23384085 -6.94476137 -1.23384085 0 0 Z " fill="#010101" transform="translate(357,291)"/>
<path d="M0 0 C0.72445313 -0.03738281 1.44890625 -0.07476562 2.1953125 -0.11328125 C9.65448481 1.07192251 15.94628262 6.26499209 21.9375 10.5625 C23.70537819 11.81559947 25.47362222 13.06818294 27.2421875 14.3203125 C28.1609668 14.97290039 29.07974609 15.62548828 30.02636719 16.29785156 C34.84986897 19.70919341 39.70821572 23.07018645 44.5625 26.4375 C47.42780391 28.43132899 50.29231249 30.42629648 53.15673828 32.42138672 C54.92469864 33.65136884 56.69384244 34.87965223 58.46435547 36.10595703 C60.81279372 37.73272769 63.15685987 39.36561135 65.5 41 C66.18022217 41.46873535 66.86044434 41.9374707 67.5612793 42.42041016 C79.01327847 50.44045903 79.01327847 50.44045903 80.28125 57.609375 C80.3121875 58.41890625 80.343125 59.2284375 80.375 60.0625 C80.4265625 60.86171875 80.478125 61.6609375 80.53125 62.484375 C78.68056489 70.45994653 71.97231053 75.12777783 65.4375 79.3125 C63.73872683 80.43750982 62.04084967 81.56387351 60.34375 82.69140625 C59.45300781 83.27809082 58.56226563 83.86477539 57.64453125 84.46923828 C52.85742804 87.65529516 48.15099888 90.95646399 43.4375 94.25 C42.47996826 94.91668701 41.52243652 95.58337402 40.53588867 96.27026367 C35.73176056 99.61555507 30.93448394 102.97038064 26.14453125 106.3359375 C25.23566162 106.974104 24.32679199 107.61227051 23.39038086 108.26977539 C21.67782192 109.47307964 19.96632956 110.67790385 18.25610352 111.88452148 C16.13760801 113.37340431 14.01004847 114.84749187 11.875 116.3125 C10.98683594 116.92222656 10.09867187 117.53195312 9.18359375 118.16015625 C4.60649668 120.44483245 -0.17782277 120.20849588 -5.125 119.3125 C-9.39065121 116.98212854 -12.30389195 114.25960843 -14.20304871 109.75610352 C-15.35522907 105.45256559 -15.41261206 101.53150939 -15.3996582 97.09765625 C-15.40476913 96.18958221 -15.40988007 95.28150818 -15.41514587 94.34591675 C-15.4290032 91.35554343 -15.42808825 88.36540153 -15.42578125 85.375 C-15.42966979 83.2904451 -15.43400479 81.20589098 -15.43876648 79.12133789 C-15.44622001 74.75697254 -15.4459433 70.3926881 -15.44067383 66.02832031 C-15.43487496 60.43963483 -15.45182462 54.8512803 -15.4750185 49.26264954 C-15.48975845 44.9594937 -15.49062727 40.65641757 -15.48750877 36.35324097 C-15.48802167 34.29278914 -15.49325353 32.23233281 -15.50332069 30.17190552 C-15.51567512 27.29016659 -15.50889966 24.40907257 -15.49731445 21.52734375 C-15.50495819 20.67937225 -15.51260193 19.83140076 -15.52047729 18.95773315 C-15.47041497 13.31574895 -14.5949639 8.95844097 -10.58984375 4.66796875 C-6.87738314 1.82902829 -4.66318163 0.15435619 0 0 Z " fill="#020202" transform="translate(433.125,335.6875)"/>
</svg>
