<?xml version="1.0" encoding="UTF-8"?>
<svg width="460" height="460" viewBox="0 0 460 460" fill="none" xmlns="http://www.w3.org/2000/svg" role="img" aria-labelledby="telora-title">
<title id="telora-title">Telora</title>
<path d="M0 0 C2.2923412 1.58755232 2.2923412 1.58755232 6.12890625 1.25 C8.98187338 -0.30561514 8.98187338 -0.30561514 12.00390625 -2.375 C35.27554179 -17.25353255 65.11117012 -21.86339933 92.12890625 -16.25 C105.98684278 -13.05604422 119.66095981 -7.17352418 131.12890625 1.25 C131.94101562 1.84167969 132.753125 2.43335937 133.58984375 3.04296875 C156.82074643 20.81424288 171.73071759 45.44486086 176.73193359 74.26245117 C180.40629884 101.91510035 174.78573784 130.57307185 158.12890625 153.25 C157.24138672 154.46816406 157.24138672 154.46816406 156.3359375 155.7109375 C147.53297469 167.21831569 135.84326748 180.28123294 121.93359375 185.43359375 C118.56348555 186.70508366 116.58288797 187.5869754 114.12890625 190.25 C112.4270345 195.86617679 112.57318564 201.90739335 112.31542969 207.72607422 C111.55472615 218.01946836 107.3959031 227.96533092 103.12890625 237.25 C102.59523438 238.47396484 102.59523438 238.47396484 102.05078125 239.72265625 C94.10796967 256.92275879 80.21811068 272.33236645 64.12890625 282.25 C63.39027344 282.745 62.65164063 283.24 61.890625 283.75 C38.82199654 298.63798879 9.76428296 302.9547228 -17.05859375 298.0625 C-19.34081922 297.50290347 -21.61277038 296.89936656 -23.87109375 296.25 C-25.07121094 295.92128906 -26.27132812 295.59257812 -27.5078125 295.25390625 C-51.81901574 287.91227852 -74.51851032 272.0937894 -87.87109375 250.25 C-88.85335937 248.69925781 -88.85335937 248.69925781 -89.85546875 247.1171875 C-100.71203672 229.47270886 -105.66229558 209.90915894 -104.87109375 189.25 C-105.91652344 188.98445312 -106.96195313 188.71890625 -108.0390625 188.4453125 C-128.06697749 182.697165 -146.31479137 160.91882731 -156.02734375 143.43359375 C-169.40555693 118.38876451 -173.71729453 88.03781654 -165.61181641 60.53125 C-161.88303319 49.04748258 -157.04267372 38.01352572 -149.87109375 28.25 C-149.27941406 27.43789062 -148.68773437 26.62578125 -148.078125 25.7890625 C-130.30685087 2.55815982 -105.67623289 -12.35181134 -76.85864258 -17.35302734 C-50.11189065 -20.90702086 -22.12596597 -15.91080699 0 0 Z M-128.34423828 27.79541016 C-145.34664423 46.38053399 -153.76453348 70.16501543 -152.78955078 95.35693359 C-151.20820237 120.54845093 -140.36433443 143.11910662 -121.75390625 160.1640625 C-116.24836056 165.00480072 -110.48919776 169.07464706 -103.87109375 172.25 C-102.79247857 169.09189249 -101.78118223 165.93565816 -100.86328125 162.7265625 C-93.59726581 137.33673641 -78.65102313 114.31669869 -55.87109375 100.25 C-55.00355469 99.70730469 -54.13601562 99.16460937 -53.2421875 98.60546875 C-46.4540654 94.44761751 -46.4540654 94.44761751 -42.64453125 93.15625 C-39.77260108 91.59871212 -39.77260108 91.59871212 -39.27148438 89.37988281 C-38.96377823 86.91292838 -38.83186311 84.484552 -38.74609375 82 C-37.07429074 57.60041753 -27.33999482 33.71890107 -9.87109375 16.25 C-9.64008504 14.25757185 -9.64008504 14.25757185 -10.87109375 12.25 C-13.27016117 10.70494023 -15.49814723 9.46354036 -18.05859375 8.25 C-18.78183838 7.90114746 -19.50508301 7.55229492 -20.25024414 7.19287109 C-56.96812497 -10.00243205 -100.53588618 -1.37709047 -128.34423828 27.79541016 Z M18.12890625 13.25 C18.12890625 17.03382198 18.9768706 17.42248607 21.56640625 20.0625 C35.56674521 35.32882706 45.09789372 56.59170109 47.12890625 77.25 C47.05414063 78.3946875 46.979375 79.539375 46.90234375 80.71875 C46.74139505 84.68317062 46.79802198 87.49770755 48.12890625 91.25 C52.01573135 94.96520951 57.24534191 96.96999549 62.05908203 99.21875 C75.37666874 105.85398075 87.41054395 118.72828634 95.12890625 131.25 C95.78503906 132.28511719 96.44117188 133.32023438 97.1171875 134.38671875 C104.07589444 145.71061173 108.74960206 158.16382693 111.12890625 171.25 C123.11519278 169.70060569 135.08697149 156.24538498 142.25390625 147.1875 C156.94528432 127.84332728 163.33536639 103.36253457 160.41357422 79.27685547 C157.95466945 61.76928484 151.44395301 45.94034283 140.12890625 32.25 C139.4534375 31.41210938 138.77796875 30.57421875 138.08203125 29.7109375 C121.7394937 10.44582937 99.61485455 1.06955841 74.84375 -1.453125 C54.17758527 -3.1046797 35.76737922 3.03691867 18.12890625 13.25 Z M3.12890625 25.25 C1.28970511 27.16733713 -0.42404209 29.08718285 -2.12109375 31.125 C-2.61762451 31.72070801 -3.11415527 32.31641602 -3.62573242 32.93017578 C-15.295214 47.16889172 -23.99629386 66.49666477 -22.87109375 85.25 C-22.16210938 85.105625 -21.453125 84.96125 -20.72265625 84.8125 C-3.90883112 81.88127625 14.38402679 81.84013364 31.12890625 85.25 C31.65073526 65.74664083 23.30317861 47.16599899 11.12890625 32.25 C10.25492188 31.14978516 10.25492188 31.14978516 9.36328125 30.02734375 C8.01490184 28.38114268 6.58083476 26.80563769 5.12890625 25.25 C4.46890625 25.25 3.80890625 25.25 3.12890625 25.25 Z M-22.87109375 102.25 C-19.89848835 123.5395168 -10.87666173 140.14082893 3.12890625 156.25 C12.60834865 152.75057968 19.36207106 138.85030768 23.54614258 130.23193359 C27.63477435 121.34791315 30.34722709 112.0209895 31.12890625 102.25 C13.32961001 97.40395873 -5.14172606 96.72850178 -22.87109375 102.25 Z M47.12890625 109.25 C46.05029107 112.40810751 45.03899473 115.56434184 44.12109375 118.7734375 C38.79908439 137.37027275 29.56806021 152.53512161 17.12890625 167.25 C35.57321398 181.34564981 59.6334438 184.90586972 82.19458008 182.1887207 C86.95033662 181.54388221 91.4979019 180.474942 96.12890625 179.25 C92.63495909 154.22668318 80.37299978 132.38521431 60.19262695 116.85620117 C56.04515886 113.77353835 51.9087801 111.25754702 47.12890625 109.25 Z M-62.87109375 126.25 C-76.31689667 140.65111562 -85.4673084 158.61486912 -87.87109375 178.25 C-82.50190061 180.43123471 -77.62611387 181.87853398 -71.87109375 182.5 C-71.13761719 182.58008301 -70.40414062 182.66016602 -69.6484375 182.74267578 C-48.73257069 184.7472625 -27.44066754 179.9630492 -9.87109375 168.25 C-10.45762424 164.89211296 -11.50703242 163.29378497 -13.87109375 160.875 C-24.83502682 148.76053074 -31.13371225 134.42335725 -35.7578125 118.94921875 C-36.73763993 115.69344128 -37.7780601 112.4692087 -38.87109375 109.25 C-46.27514152 109.25 -57.85741279 121.30549598 -62.87109375 126.25 Z M3.12890625 178.25 C0.98988373 179.48721467 0.98988373 179.48721467 -1.24609375 181.3125 C-18.15449969 193.60285866 -39.56801534 198.66328016 -60.18359375 198.5 C-61.36606689 198.49613281 -62.54854004 198.49226563 -63.7668457 198.48828125 C-71.95282735 198.40720405 -79.83574454 197.91351037 -87.87109375 196.25 C-88.0365795 201.76619165 -87.59932514 206.64533318 -86.18359375 212 C-85.91349487 213.03979004 -85.91349487 213.03979004 -85.63793945 214.10058594 C-78.94106826 238.9199172 -63.51070132 258.79550448 -41.35888672 271.60375977 C-19.26340885 283.71717837 6.23469087 286.29256017 30.41796875 279.40625 C54.71120763 271.8369882 74.30097782 256.12860301 86.50390625 233.875 C91.83320306 223.70805371 96.39112221 211.45852589 96.19140625 199.875 C96.16046875 198.080625 96.16046875 198.080625 96.12890625 196.25 C95.43152344 196.394375 94.73414063 196.53875 94.015625 196.6875 C64.22615078 201.92520975 33.33766254 198.08646204 8.16015625 180.59765625 C6.07515549 179.08709817 6.07515549 179.08709817 3.12890625 178.25 Z " fill="#64748B" transform="translate(219.87109375,83.75)"/>
</svg>
