<svg width="64" height="64" viewBox="0 0 256 256" fill="none" xmlns="http://www.w3.org/2000/svg">
  <rect width="256" height="256" rx="18" fill="#64748B"/>
  <path d="M119.373653 144.745813 75.43296 62.4315733H95.5144533L121.36192 114.52416C121.759575 115.452022 122.2235 116.413008 122.753707 117.407147 123.283914 118.401285 123.747838 119.428546 124.145493 120.48896 124.410597 120.886615 124.609422 121.251127 124.741973 121.582507 124.874525 121.913886 125.007075 122.212123 125.139627 122.477227 125.802386 123.802744 126.39886 125.095105 126.929067 126.354347 127.459274 127.613589 127.923198 128.773399 128.320853 129.833813 129.381268 127.580433 130.541078 125.1614 131.80032 122.57664 133.059562 119.99188 134.351922 117.307747 135.67744 114.52416L161.92256 62.4315733H180.612267L136.27392 145.739947V198.826667H119.373653V144.745813Z" fill="#FFFFFF"/>
</svg>
